<<<<<<< HEAD
<mxfile host="65bd71144e">
    <diagram id="dghgkRzPQQI_TrjqHUwV" name="Page-1">
        <mxGraphModel dx="1204" dy="790" grid="1" gridSize="10" guides="1" tooltips="1" connect="1" arrows="1" fold="1" page="1" pageScale="1" pageWidth="850" pageHeight="1100" math="0" shadow="0">
            <root>
                <mxCell id="0"/>
                <mxCell id="1" parent="0"/>
                <mxCell id="2" value="" style="rounded=0;whiteSpace=wrap;html=1;" parent="1" vertex="1">
                    <mxGeometry x="40" y="1020" width="120" height="60" as="geometry"/>
                </mxCell>
                <mxCell id="3" value="" style="rounded=0;whiteSpace=wrap;html=1;" parent="1" vertex="1">
                    <mxGeometry x="160" y="1020" width="120" height="60" as="geometry"/>
                </mxCell>
                <mxCell id="S011tTiB7EtAxiDYHqCA-3" value="" style="rounded=0;whiteSpace=wrap;html=1;" parent="1" vertex="1">
                    <mxGeometry x="40" y="930" width="120" height="60" as="geometry"/>
                </mxCell>
                <mxCell id="S011tTiB7EtAxiDYHqCA-4" value="" style="rounded=0;whiteSpace=wrap;html=1;" parent="1" vertex="1">
                    <mxGeometry x="160" y="930" width="120" height="60" as="geometry"/>
                </mxCell>
                <mxCell id="S011tTiB7EtAxiDYHqCA-5" value="" style="rounded=0;whiteSpace=wrap;html=1;" parent="1" vertex="1">
                    <mxGeometry x="40" y="870" width="120" height="60" as="geometry"/>
                </mxCell>
                <mxCell id="S011tTiB7EtAxiDYHqCA-6" value="" style="rounded=0;whiteSpace=wrap;html=1;" parent="1" vertex="1">
                    <mxGeometry x="160" y="870" width="120" height="60" as="geometry"/>
                </mxCell>
            </root>
        </mxGraphModel>
    </diagram>
</mxfile>
=======
<mxfile host="app.diagrams.net" modified="2022-08-18T08:37:18.163Z" agent="5.0 (Windows NT 10.0; Win64; x64) AppleWebKit/537.36 (KHTML, like Gecko) Chrome/104.0.0.0 Safari/537.36" etag="qDYaymcKZDNpt_vIsfZw" version="20.2.4" type="github">
  <diagram id="dghgkRzPQQI_TrjqHUwV" name="Page-1">
    <mxGraphModel dx="981" dy="526" grid="1" gridSize="10" guides="1" tooltips="1" connect="1" arrows="1" fold="1" page="1" pageScale="1" pageWidth="850" pageHeight="1100" math="0" shadow="0">
      <root>
        <mxCell id="0" />
        <mxCell id="1" parent="0" />
        <mxCell id="2" value="" style="rounded=0;whiteSpace=wrap;html=1;" parent="1" vertex="1">
          <mxGeometry x="40" y="1040" width="120" height="40" as="geometry" />
        </mxCell>
        <object label="&lt;font style=&quot;font-size: 9px;&quot;&gt;&lt;br&gt;&lt;/font&gt;" placeholders="1" Монитор="" id="3">
          <mxCell style="rounded=0;whiteSpace=wrap;html=1;" parent="1" vertex="1">
            <mxGeometry x="160" y="1040" width="120" height="40" as="geometry" />
          </mxCell>
        </object>
        <mxCell id="S011tTiB7EtAxiDYHqCA-3" value="" style="rounded=0;whiteSpace=wrap;html=1;" parent="1" vertex="1">
          <mxGeometry x="40" y="960" width="120" height="40" as="geometry" />
        </mxCell>
        <mxCell id="S011tTiB7EtAxiDYHqCA-4" value="" style="rounded=0;whiteSpace=wrap;html=1;" parent="1" vertex="1">
          <mxGeometry x="160" y="960" width="120" height="40" as="geometry" />
        </mxCell>
        <mxCell id="S011tTiB7EtAxiDYHqCA-5" value="" style="rounded=0;whiteSpace=wrap;html=1;" parent="1" vertex="1">
          <mxGeometry x="40" y="920" width="120" height="40" as="geometry" />
        </mxCell>
        <mxCell id="S011tTiB7EtAxiDYHqCA-6" value="" style="rounded=0;whiteSpace=wrap;html=1;" parent="1" vertex="1">
          <mxGeometry x="160" y="920" width="120" height="40" as="geometry" />
        </mxCell>
        <mxCell id="_EUhWRVc3iwfaEag8UCp-8" value="" style="rounded=0;whiteSpace=wrap;html=1;" vertex="1" parent="1">
          <mxGeometry x="40" y="840" width="120" height="40" as="geometry" />
        </mxCell>
        <mxCell id="_EUhWRVc3iwfaEag8UCp-9" value="" style="rounded=0;whiteSpace=wrap;html=1;" vertex="1" parent="1">
          <mxGeometry x="160" y="840" width="120" height="40" as="geometry" />
        </mxCell>
        <mxCell id="_EUhWRVc3iwfaEag8UCp-10" value="" style="rounded=0;whiteSpace=wrap;html=1;" vertex="1" parent="1">
          <mxGeometry x="40" y="800" width="120" height="40" as="geometry" />
        </mxCell>
        <mxCell id="_EUhWRVc3iwfaEag8UCp-11" value="" style="rounded=0;whiteSpace=wrap;html=1;" vertex="1" parent="1">
          <mxGeometry x="160" y="800" width="120" height="40" as="geometry" />
        </mxCell>
        <mxCell id="_EUhWRVc3iwfaEag8UCp-12" value="" style="rounded=0;whiteSpace=wrap;html=1;" vertex="1" parent="1">
          <mxGeometry x="40" y="600" width="240" height="160" as="geometry" />
        </mxCell>
        <mxCell id="_EUhWRVc3iwfaEag8UCp-13" value="" style="rounded=0;whiteSpace=wrap;html=1;" vertex="1" parent="1">
          <mxGeometry x="40" y="440" width="240" height="160" as="geometry" />
        </mxCell>
        <mxCell id="_EUhWRVc3iwfaEag8UCp-14" value="" style="rounded=0;whiteSpace=wrap;html=1;" vertex="1" parent="1">
          <mxGeometry x="40" y="280" width="240" height="160" as="geometry" />
        </mxCell>
        <mxCell id="_EUhWRVc3iwfaEag8UCp-15" value="" style="rounded=0;whiteSpace=wrap;html=1;" vertex="1" parent="1">
          <mxGeometry x="40" y="120" width="240" height="160" as="geometry" />
        </mxCell>
      </root>
    </mxGraphModel>
  </diagram>
</mxfile>
>>>>>>> d8789eed0f6b86b5a4ff921f14cd90623aa5390e
